<?xml version="1.0" encoding="UTF-8" standalone="no"?>
<!DOCTYPE svg PUBLIC "-//W3C//DTD SVG 1.1//EN"
 "http://www.w3.org/Graphics/SVG/1.1/DTD/svg11.dtd">
<!-- Generated by graphviz version 2.40.1 (20161225.0304)
 -->
<!-- Title: inheritancefcc8fa5687 Pages: 1 -->
<svg width="392pt" height="105pt"
 viewBox="0.00 0.00 392.00 105.00" xmlns="http://www.w3.org/2000/svg" xmlns:xlink="http://www.w3.org/1999/xlink">
<g id="graph0" class="graph" transform="scale(1 1) rotate(0) translate(4 101)">
<title>inheritancefcc8fa5687</title>
<!-- LinearTransformationScene -->
<g id="node1" class="node">
<title>LinearTransformationScene</title>
<g id="a_node1"><a xlink:href="../reference/manim.scene.vector_space_scene.LinearTransformationScene.html#manim.scene.vector_space_scene.LinearTransformationScene" xlink:title="This scene contains special methods that make it" target="_top">
<polygon fill="#ffffff" stroke="#000000" stroke-width="0" points="384,-71 243,-71 243,-52 384,-52 384,-71"/>
<text text-anchor="middle" x="313.5" y="-59" font-family="Vera Sans, DejaVu Sans, Liberation Sans, Arial, Helvetica, sans" font-size="10.00" fill="#000000">LinearTransformationScene</text>
</a>
</g>
</g>
<!-- VectorScene -->
<g id="node2" class="node">
<title>VectorScene</title>
<g id="a_node2"><a xlink:href="../reference/manim.scene.vector_space_scene.VectorScene.html#manim.scene.vector_space_scene.VectorScene" xlink:title="VectorScene" target="_top">
<polygon fill="#ffffff" stroke="#000000" stroke-width="0" points="208,-71 139,-71 139,-52 208,-52 208,-71"/>
<text text-anchor="middle" x="173.5" y="-59" font-family="Vera Sans, DejaVu Sans, Liberation Sans, Arial, Helvetica, sans" font-size="10.00" fill="#000000">VectorScene</text>
</a>
</g>
</g>
<!-- VectorScene&#45;&gt;LinearTransformationScene -->
<g id="edge1" class="edge">
<title>VectorScene&#45;&gt;LinearTransformationScene</title>
<path fill="none" stroke="#000000" d="M208.1068,-61.5C208.1068,-61.5 237.896,-61.5 237.896,-61.5"/>
<polygon fill="#000000" stroke="#000000" points="237.896,-63.2501 242.896,-61.5 237.896,-59.7501 237.896,-63.2501"/>
</g>
<!-- MovingCameraScene -->
<g id="node3" class="node">
<title>MovingCameraScene</title>
<g id="a_node3"><a xlink:href="../reference/manim.scene.moving_camera_scene.MovingCameraScene.html#manim.scene.moving_camera_scene.MovingCameraScene" xlink:title="This is a Scene, with special configurations and properties that" target="_top">
<polygon fill="#ffffff" stroke="#000000" stroke-width="0" points="229,-45 118,-45 118,-26 229,-26 229,-45"/>
<text text-anchor="middle" x="173.5" y="-33" font-family="Vera Sans, DejaVu Sans, Liberation Sans, Arial, Helvetica, sans" font-size="10.00" fill="#000000">MovingCameraScene</text>
</a>
</g>
</g>
<!-- ZoomedScene -->
<g id="node9" class="node">
<title>ZoomedScene</title>
<g id="a_node9"><a xlink:href="../reference/manim.scene.zoomed_scene.ZoomedScene.html#manim.scene.zoomed_scene.ZoomedScene" xlink:title="This is a Scene with special configurations made for when" target="_top">
<polygon fill="#ffffff" stroke="#000000" stroke-width="0" points="352.5,-45 274.5,-45 274.5,-26 352.5,-26 352.5,-45"/>
<text text-anchor="middle" x="313.5" y="-33" font-family="Vera Sans, DejaVu Sans, Liberation Sans, Arial, Helvetica, sans" font-size="10.00" fill="#000000">ZoomedScene</text>
</a>
</g>
</g>
<!-- MovingCameraScene&#45;&gt;ZoomedScene -->
<g id="edge6" class="edge">
<title>MovingCameraScene&#45;&gt;ZoomedScene</title>
<path fill="none" stroke="#000000" d="M229.234,-35.5C229.234,-35.5 269.3291,-35.5 269.3291,-35.5"/>
<polygon fill="#000000" stroke="#000000" points="269.3292,-37.2501 274.3291,-35.5 269.3291,-33.7501 269.3292,-37.2501"/>
</g>
<!-- Scene -->
<g id="node4" class="node">
<title>Scene</title>
<g id="a_node4"><a xlink:href="../reference/manim.scene.scene.Scene.html#manim.scene.scene.Scene" xlink:title="A Scene is the canvas of your animation." target="_top">
<polygon fill="#ffffff" stroke="#000000" stroke-width="0" points="71,-45 33,-45 33,-26 71,-26 71,-45"/>
<text text-anchor="middle" x="52" y="-33" font-family="Vera Sans, DejaVu Sans, Liberation Sans, Arial, Helvetica, sans" font-size="10.00" fill="#000000">Scene</text>
</a>
</g>
</g>
<!-- Scene&#45;&gt;VectorScene -->
<g id="edge5" class="edge">
<title>Scene&#45;&gt;VectorScene</title>
<path fill="none" stroke="#000000" d="M71.3188,-38.6667C88.5257,-38.6667 111,-38.6667 111,-38.6667 111,-38.6667 111,-61.5 111,-61.5 111,-61.5 133.9595,-61.5 133.9595,-61.5"/>
<polygon fill="#000000" stroke="#000000" points="133.9596,-63.2501 138.9595,-61.5 133.9595,-59.7501 133.9596,-63.2501"/>
</g>
<!-- Scene&#45;&gt;MovingCameraScene -->
<g id="edge2" class="edge">
<title>Scene&#45;&gt;MovingCameraScene</title>
<path fill="none" stroke="#000000" d="M71.252,-32.3333C71.252,-32.3333 112.8636,-32.3333 112.8636,-32.3333"/>
<polygon fill="#000000" stroke="#000000" points="112.8636,-34.0834 117.8636,-32.3333 112.8635,-30.5834 112.8636,-34.0834"/>
</g>
<!-- ThreeDScene -->
<g id="node8" class="node">
<title>ThreeDScene</title>
<g id="a_node8"><a xlink:href="../reference/manim.scene.three_d_scene.ThreeDScene.html#manim.scene.three_d_scene.ThreeDScene" xlink:title="This is a Scene, with special configurations and properties that" target="_top">
<polygon fill="#ffffff" stroke="#000000" stroke-width="0" points="210,-19 137,-19 137,0 210,0 210,-19"/>
<text text-anchor="middle" x="173.5" y="-7" font-family="Vera Sans, DejaVu Sans, Liberation Sans, Arial, Helvetica, sans" font-size="10.00" fill="#000000">ThreeDScene</text>
</a>
</g>
</g>
<!-- Scene&#45;&gt;ThreeDScene -->
<g id="edge4" class="edge">
<title>Scene&#45;&gt;ThreeDScene</title>
<path fill="none" stroke="#000000" d="M52,-25.8186C52,-18.4264 52,-9.5 52,-9.5 52,-9.5 131.7163,-9.5 131.7163,-9.5"/>
<polygon fill="#000000" stroke="#000000" points="131.7163,-11.2501 136.7163,-9.5 131.7162,-7.7501 131.7163,-11.2501"/>
</g>
<!-- RerunSceneHandler -->
<g id="node5" class="node">
<title>RerunSceneHandler</title>
<g id="a_node5"><a xlink:href="../reference/manim.scene.scene.RerunSceneHandler.html#manim.scene.scene.RerunSceneHandler" xlink:title="A class to handle rerunning a Scene after the input file is modified." target="_top">
<polygon fill="#ffffff" stroke="#000000" stroke-width="0" points="104,-71 0,-71 0,-52 104,-52 104,-71"/>
<text text-anchor="middle" x="52" y="-59" font-family="Vera Sans, DejaVu Sans, Liberation Sans, Arial, Helvetica, sans" font-size="10.00" fill="#000000">RerunSceneHandler</text>
</a>
</g>
</g>
<!-- SceneFileWriter -->
<g id="node6" class="node">
<title>SceneFileWriter</title>
<g id="a_node6"><a xlink:href="../reference/manim.scene.scene_file_writer.SceneFileWriter.html#manim.scene.scene_file_writer.SceneFileWriter" xlink:title="SceneFileWriter is the object that actually writes the animations" target="_top">
<polygon fill="#ffffff" stroke="#000000" stroke-width="0" points="94,-97 10,-97 10,-78 94,-78 94,-97"/>
<text text-anchor="middle" x="52" y="-85" font-family="Vera Sans, DejaVu Sans, Liberation Sans, Arial, Helvetica, sans" font-size="10.00" fill="#000000">SceneFileWriter</text>
</a>
</g>
</g>
<!-- SpecialThreeDScene -->
<g id="node7" class="node">
<title>SpecialThreeDScene</title>
<g id="a_node7"><a xlink:href="../reference/manim.scene.three_d_scene.SpecialThreeDScene.html#manim.scene.three_d_scene.SpecialThreeDScene" xlink:title="An extension of :class:`ThreeDScene` with more settings." target="_top">
<polygon fill="#ffffff" stroke="#000000" stroke-width="0" points="367.5,-19 259.5,-19 259.5,0 367.5,0 367.5,-19"/>
<text text-anchor="middle" x="313.5" y="-7" font-family="Vera Sans, DejaVu Sans, Liberation Sans, Arial, Helvetica, sans" font-size="10.00" fill="#000000">SpecialThreeDScene</text>
</a>
</g>
</g>
<!-- ThreeDScene&#45;&gt;SpecialThreeDScene -->
<g id="edge3" class="edge">
<title>ThreeDScene&#45;&gt;SpecialThreeDScene</title>
<path fill="none" stroke="#000000" d="M210.2834,-9.5C210.2834,-9.5 254.3129,-9.5 254.3129,-9.5"/>
<polygon fill="#000000" stroke="#000000" points="254.3129,-11.2501 259.3129,-9.5 254.3128,-7.7501 254.3129,-11.2501"/>
</g>
</g>
</svg>
