<?xml version="1.0" encoding="UTF-8" standalone="no"?>
<!DOCTYPE svg PUBLIC "-//W3C//DTD SVG 1.1//EN"
 "http://www.w3.org/Graphics/SVG/1.1/DTD/svg11.dtd">
<!-- Generated by graphviz version 2.40.1 (20161225.0304)
 -->
<!-- Title: inheritance1a913f6bbb Pages: 1 -->
<svg width="421pt" height="105pt"
 viewBox="0.00 0.00 421.00 105.00" xmlns="http://www.w3.org/2000/svg" xmlns:xlink="http://www.w3.org/1999/xlink">
<g id="graph0" class="graph" transform="scale(1 1) rotate(0) translate(4 101)">
<title>inheritance1a913f6bbb</title>
<!-- BackgroundColoredVMobjectDisplayer -->
<g id="node1" class="node">
<title>BackgroundColoredVMobjectDisplayer</title>
<g id="a_node1"><a xlink:href="../reference/manim.camera.camera.BackgroundColoredVMobjectDisplayer.html#manim.camera.camera.BackgroundColoredVMobjectDisplayer" xlink:title="BackgroundColoredVMobjectDisplayer" target="_top">
<polygon fill="#ffffff" stroke="#000000" stroke-width="0" points="195,-32 0,-32 0,-13 195,-13 195,-32"/>
<text text-anchor="middle" x="97.5" y="-20" font-family="Vera Sans, DejaVu Sans, Liberation Sans, Arial, Helvetica, sans" font-size="10.00" fill="#000000">BackgroundColoredVMobjectDisplayer</text>
</a>
</g>
</g>
<!-- Camera -->
<g id="node2" class="node">
<title>Camera</title>
<g id="a_node2"><a xlink:href="../reference/manim.camera.camera.Camera.html#manim.camera.camera.Camera" xlink:title="Base camera class." target="_top">
<polygon fill="#ffffff" stroke="#000000" stroke-width="0" points="121,-58 74,-58 74,-39 121,-39 121,-58"/>
<text text-anchor="middle" x="97.5" y="-46" font-family="Vera Sans, DejaVu Sans, Liberation Sans, Arial, Helvetica, sans" font-size="10.00" fill="#000000">Camera</text>
</a>
</g>
</g>
<!-- MappingCamera -->
<g id="node3" class="node">
<title>MappingCamera</title>
<g id="a_node3"><a xlink:href="../reference/manim.camera.mapping_camera.MappingCamera.html#manim.camera.mapping_camera.MappingCamera" xlink:title="Camera object that allows mapping" target="_top">
<polygon fill="#ffffff" stroke="#000000" stroke-width="0" points="297,-97 209,-97 209,-78 297,-78 297,-97"/>
<text text-anchor="middle" x="253" y="-85" font-family="Vera Sans, DejaVu Sans, Liberation Sans, Arial, Helvetica, sans" font-size="10.00" fill="#000000">MappingCamera</text>
</a>
</g>
</g>
<!-- Camera&#45;&gt;MappingCamera -->
<g id="edge1" class="edge">
<title>Camera&#45;&gt;MappingCamera</title>
<path fill="none" stroke="#000000" d="M90,-58.3413C90,-69.8948 90,-87.5 90,-87.5 90,-87.5 203.8899,-87.5 203.8899,-87.5"/>
<polygon fill="#000000" stroke="#000000" points="203.8899,-89.2501 208.8899,-87.5 203.8898,-85.7501 203.8899,-89.2501"/>
</g>
<!-- MovingCamera -->
<g id="node4" class="node">
<title>MovingCamera</title>
<g id="a_node4"><a xlink:href="../reference/manim.camera.moving_camera.MovingCamera.html#manim.camera.moving_camera.MovingCamera" xlink:title="Stays in line with the height, width and position of it&#39;s &#39;frame&#39;, which is a Rectangle" target="_top">
<polygon fill="#ffffff" stroke="#000000" stroke-width="0" points="294,-71 212,-71 212,-52 294,-52 294,-71"/>
<text text-anchor="middle" x="253" y="-59" font-family="Vera Sans, DejaVu Sans, Liberation Sans, Arial, Helvetica, sans" font-size="10.00" fill="#000000">MovingCamera</text>
</a>
</g>
</g>
<!-- Camera&#45;&gt;MovingCamera -->
<g id="edge2" class="edge">
<title>Camera&#45;&gt;MovingCamera</title>
<path fill="none" stroke="#000000" d="M106,-58.3597C106,-61.6523 106,-64.5 106,-64.5 106,-64.5 206.6611,-64.5 206.6611,-64.5"/>
<polygon fill="#000000" stroke="#000000" points="206.6611,-66.2501 211.6611,-64.5 206.6611,-62.7501 206.6611,-66.2501"/>
</g>
<!-- OldMultiCamera -->
<g id="node6" class="node">
<title>OldMultiCamera</title>
<g id="a_node6"><a xlink:href="../reference/manim.camera.mapping_camera.OldMultiCamera.html#manim.camera.mapping_camera.OldMultiCamera" xlink:title="OldMultiCamera" target="_top">
<polygon fill="#ffffff" stroke="#000000" stroke-width="0" points="296.5,-45 209.5,-45 209.5,-26 296.5,-26 296.5,-45"/>
<text text-anchor="middle" x="253" y="-33" font-family="Vera Sans, DejaVu Sans, Liberation Sans, Arial, Helvetica, sans" font-size="10.00" fill="#000000">OldMultiCamera</text>
</a>
</g>
</g>
<!-- Camera&#45;&gt;OldMultiCamera -->
<g id="edge4" class="edge">
<title>Camera&#45;&gt;OldMultiCamera</title>
<path fill="none" stroke="#000000" d="M98,-38.7804C98,-36.8997 98,-35.5 98,-35.5 98,-35.5 204.4114,-35.5 204.4114,-35.5"/>
<polygon fill="#000000" stroke="#000000" points="204.4114,-37.2501 209.4114,-35.5 204.4113,-33.7501 204.4114,-37.2501"/>
</g>
<!-- ThreeDCamera -->
<g id="node8" class="node">
<title>ThreeDCamera</title>
<g id="a_node8"><a xlink:href="../reference/manim.camera.three_d_camera.ThreeDCamera.html#manim.camera.three_d_camera.ThreeDCamera" xlink:title="ThreeDCamera" target="_top">
<polygon fill="#ffffff" stroke="#000000" stroke-width="0" points="294,-19 212,-19 212,0 294,0 294,-19"/>
<text text-anchor="middle" x="253" y="-7" font-family="Vera Sans, DejaVu Sans, Liberation Sans, Arial, Helvetica, sans" font-size="10.00" fill="#000000">ThreeDCamera</text>
</a>
</g>
</g>
<!-- Camera&#45;&gt;ThreeDCamera -->
<g id="edge6" class="edge">
<title>Camera&#45;&gt;ThreeDCamera</title>
<path fill="none" stroke="#000000" d="M121.1763,-48.5C152.2812,-48.5 203,-48.5 203,-48.5 203,-48.5 203,-6.5 203,-6.5 203,-6.5 206.7093,-6.5 206.7093,-6.5"/>
<polygon fill="#000000" stroke="#000000" points="206.7094,-8.2501 211.7093,-6.5 206.7093,-4.7501 206.7094,-8.2501"/>
</g>
<!-- MultiCamera -->
<g id="node5" class="node">
<title>MultiCamera</title>
<g id="a_node5"><a xlink:href="../reference/manim.camera.multi_camera.MultiCamera.html#manim.camera.multi_camera.MultiCamera" xlink:title="Camera Object that allows for multiple perspectives." target="_top">
<polygon fill="#ffffff" stroke="#000000" stroke-width="0" points="397.5,-71 326.5,-71 326.5,-52 397.5,-52 397.5,-71"/>
<text text-anchor="middle" x="362" y="-59" font-family="Vera Sans, DejaVu Sans, Liberation Sans, Arial, Helvetica, sans" font-size="10.00" fill="#000000">MultiCamera</text>
</a>
</g>
</g>
<!-- MovingCamera&#45;&gt;MultiCamera -->
<g id="edge3" class="edge">
<title>MovingCamera&#45;&gt;MultiCamera</title>
<path fill="none" stroke="#000000" d="M294.2082,-61.5C294.2082,-61.5 321.4413,-61.5 321.4413,-61.5"/>
<polygon fill="#000000" stroke="#000000" points="321.4413,-63.2501 326.4413,-61.5 321.4413,-59.7501 321.4413,-63.2501"/>
</g>
<!-- SplitScreenCamera -->
<g id="node7" class="node">
<title>SplitScreenCamera</title>
<g id="a_node7"><a xlink:href="../reference/manim.camera.mapping_camera.SplitScreenCamera.html#manim.camera.mapping_camera.SplitScreenCamera" xlink:title="SplitScreenCamera" target="_top">
<polygon fill="#ffffff" stroke="#000000" stroke-width="0" points="413,-45 311,-45 311,-26 413,-26 413,-45"/>
<text text-anchor="middle" x="362" y="-33" font-family="Vera Sans, DejaVu Sans, Liberation Sans, Arial, Helvetica, sans" font-size="10.00" fill="#000000">SplitScreenCamera</text>
</a>
</g>
</g>
<!-- OldMultiCamera&#45;&gt;SplitScreenCamera -->
<g id="edge5" class="edge">
<title>OldMultiCamera&#45;&gt;SplitScreenCamera</title>
<path fill="none" stroke="#000000" d="M296.7064,-35.5C296.7064,-35.5 305.749,-35.5 305.749,-35.5"/>
<polygon fill="#000000" stroke="#000000" points="305.7491,-37.2501 310.749,-35.5 305.749,-33.7501 305.7491,-37.2501"/>
</g>
</g>
</svg>
